Coordinates
version=1
nRows=68
nColumns=6
inDegrees=yes

Units are S.I. units (second, meters, Newtons, ...)
If the header above contains a line with 'inDegrees', this indicates whether rotational values are in degrees (yes) or radians (no).

endheader
time	foot_tx	hip_flexion_r	knee_angle_r	ankle_angle_r	lumbar
     18.80000000	      0.17238072	     53.32104387	    -70.68542472	      3.10192023	    -24.12125379
     18.81000000	      0.17237975	     53.35814174	    -70.68165309	      3.09921125	    -24.16387637
     18.82000000	      0.17236452	     53.36633459	    -70.67695115	      3.09962423	    -24.24327974
     18.83000000	      0.17234836	     53.39013145	    -70.67327161	      3.09921863	    -24.31120017
     18.84000000	      0.17233320	     53.41587688	    -70.66871833	      3.09822777	    -24.38336103
     18.85000000	      0.17231707	     53.44341138	    -70.66400854	      3.09717606	    -24.45993678
     18.86000000	      0.17230243	     53.47292789	    -70.65915776	      3.09602096	    -24.54101116
     18.87000000	      0.17228896	     53.50440339	    -70.65405389	      3.09476619	    -24.62710125
     18.88000000	      0.17227664	     53.53784507	    -70.64859890	      3.09344956	    -24.71869039
     18.89000000	      0.17226741	     53.57326744	    -70.64290475	      3.09209598	    -24.81611822
     18.90000000	      0.17225996	     53.61076153	    -70.63691192	      3.09080453	    -24.91981522
     18.91000000	      0.17226683	     53.67697701	    -70.62947725	      3.08581461	    -25.00153553
     18.92000000	      0.17224258	     53.69109973	    -70.62400562	      3.08937596	    -25.14874306
     18.93000000	      0.17222924	     53.73362119	    -70.61655879	      3.08924385	    -25.27512916
     18.94000000	      0.17221403	     53.78055436	    -70.60892353	      3.08953330	    -25.40641316
     18.95000000	      0.17219336	     53.83224095	    -70.60054172	      3.09013427	    -25.54285550
     18.96000000	      0.17217277	     53.89073104	    -70.59149044	      3.09058534	    -25.68166224
     18.97000000	      0.17215999	     53.98699918	    -70.58065074	      3.08700166	    -25.79055537
     18.98000000	      0.17212115	     54.03122452	    -70.56931770	      3.09067361	    -25.96616452
     18.99000000	      0.17210246	     54.14114037	    -70.55665941	      3.08764932	    -26.08055776
     19.00000000	      0.17206709	     54.20321300	    -70.54050337	      3.08961873	    -26.25801168
     19.01000000	      0.17204274	     54.32407165	    -70.52566085	      3.08808010	    -26.38094232
     19.02000000	      0.17200436	     54.40304330	    -70.50735824	      3.09090356	    -26.56197200
     19.03000000	      0.17197593	     54.53710286	    -70.49048928	      3.09041691	    -26.69483498
     19.04000000	      0.17193288	     54.63976979	    -70.47153693	      3.09364807	    -26.87751122
     19.05000000	      0.17189278	     54.79155333	    -70.45553639	      3.09482560	    -27.02178973
     19.06000000	      0.17184661	     54.95129265	    -70.43974444	      3.09654353	    -27.17533434
     19.07000000	      0.17179327	     55.12056052	    -70.42505678	      3.09944604	    -27.33611669
     19.08000000	      0.17173437	     55.29984069	    -70.41149499	      3.10388738	    -27.50298678
     19.09000000	      0.17167159	     55.48901071	    -70.39890210	      3.11019004	    -27.67547118
     19.10000000	      0.17160875	     55.68785818	    -70.38700993	      3.11844833	    -27.85380807
     19.11000000	      0.17154471	     55.89565572	    -70.37615143	      3.12913351	    -28.03829867
     19.12000000	      0.17148130	     56.11252576	    -70.36604482	      3.14210349	    -28.22925865
     19.13000000	      0.17141737	     56.33881347	    -70.35679360	      3.15739033	    -28.42690589
     19.14000000	      0.17135302	     56.57483633	    -70.34827642	      3.17480921	    -28.63137989
     19.15000000	      0.17128666	     56.84017113	    -70.34278225	      3.19394609	    -28.82125088
     19.16000000	      0.17122347	     57.09105657	    -70.33446018	      3.21499889	    -29.04547101
     19.17000000	      0.17116039	     57.35333021	    -70.32596441	      3.23723743	    -29.27576497
     19.18000000	      0.17110196	     57.62716199	    -70.31658063	      3.26023216	    -29.51115119
     19.19000000	      0.17104302	     57.91419179	    -70.30622201	      3.28415486	    -29.74992287
     19.20000000	      0.17097551	     58.25134683	    -70.30182036	      3.31073662	    -29.94891453
     19.21000000	      0.17092397	     58.54738977	    -70.28887347	      3.33888172	    -30.20856546
     19.22000000	      0.17087299	     58.85695015	    -70.27308024	      3.36774042	    -30.47081341
     19.23000000	      0.17082123	     59.21238721	    -70.26040760	      3.39818248	    -30.69644627
     19.24000000	      0.17078283	     59.53252211	    -70.23976838	      3.43064313	    -30.97665373
     19.25000000	      0.17074168	     59.89619552	    -70.21947707	      3.46321589	    -31.22533025
     19.26000000	      0.17070702	     60.23592044	    -70.19244846	      3.49787081	    -31.51679330
     19.27000000	      0.17066831	     60.63392536	    -70.16725221	      3.53267195	    -31.75963876
     19.28000000	      0.17063565	     61.02220933	    -70.13598770	      3.56900454	    -32.02819163
     19.29000000	      0.17059372	     61.43290263	    -70.10442338	      3.60799488	    -32.28857804
     19.30000000	      0.17055489	     61.87307128	    -70.06961953	      3.64599212	    -32.53380607
     19.31000000	      0.17051158	     62.34976916	    -70.03296504	      3.68354437	    -32.75675992
     19.32000000	      0.17045749	     62.85996608	    -69.99560316	      3.72272816	    -32.95858717
     19.33000000	      0.17039999	     63.39198683	    -69.95460865	      3.76374856	    -33.14913012
     19.34000000	      0.17033536	     63.93822034	    -69.90996281	      3.80873494	    -33.33390524
     19.35000000	      0.17025814	     64.48742801	    -69.86341209	      3.86088323	    -33.52256865
     19.36000000	      0.17017522	     65.03853403	    -69.81303622	      3.91916356	    -33.71541946
     19.37000000	      0.17009217	     65.58705490	    -69.75828512	      3.98327509	    -33.91633635
     19.38000000	      0.17001117	     66.13482869	    -69.69898782	      4.05298450	    -34.12306889
     19.39000000	      0.16993820	     66.68471477	    -69.63493197	      4.12747736	    -34.33208306
     19.40000000	      0.16987834	     67.24061916	    -69.56643608	      4.20652789	    -34.53822454
     19.41000000	      0.16983676	     67.80620087	    -69.49423444	      4.29035026	    -34.73613359
     19.42000000	      0.16981557	     68.38790357	    -69.41928923	      4.37948052	    -34.91767339
     19.43000000	      0.16981874	     68.98792577	    -69.34229284	      4.47434145	    -35.07981054
     19.44000000	      0.16984436	     69.61005703	    -69.26441577	      4.57543722	    -35.21825599
     19.45000000	      0.16989426	     70.25872902	    -69.18490088	      4.68245935	    -35.32797645
     19.46000000	      0.16996995	     70.93072689	    -69.10178580	      4.79482979	    -35.41270417
     19.47000000	      0.17006862	     71.62516313	    -69.01244068	      4.91190104	    -35.47311675
